<?xml version="1.0" encoding="UTF-8"?>
<svg xmlns="http://www.w3.org/2000/svg" viewBox="0 0 500 450" width="500" height="450">
  <rect x="0" y="0" width="500" height="450" fill="#fdfdfd"/>

  <text x="250" y="34" text-anchor="middle" font-family="serif" font-size="18" font-weight="bold" fill="#333">Sacred Rivers Invocation</text>

  <!-- River streams -->
  <g fill="none" stroke-linecap="round" stroke-width="5">
    <path d="M70 105 C145 82 180 130 238 116 C308 98 337 74 430 92" stroke="#38bdf8"/>
    <path d="M80 165 C145 145 180 190 240 174 C305 156 352 140 420 158" stroke="#60a5fa"/>
    <path d="M70 225 C140 205 178 245 238 232 C300 219 348 205 430 220" stroke="#0ea5e9"/>
  </g>

  <g font-family="serif" font-size="13" fill="#333">
    <text x="92" y="82">Ganga</text>
    <text x="198" y="92">Yamuna</text>
    <text x="316" y="72">Godavari</text>
    <text x="86" y="146">Sarasvati</text>
    <text x="200" y="151">Narmada</text>
    <text x="310" y="138">Sindhu</text>
    <text x="370" y="202">Kaveri</text>
  </g>

  <!-- Kalasa receiving the rivers -->
  <path d="M178 252 L322 252 L302 380 L198 380 Z" fill="#f5f5f5" stroke="#333" stroke-width="3"/>
  <ellipse cx="250" cy="252" rx="72" ry="16" fill="#ffffff" stroke="#333" stroke-width="3"/>
  <path d="M192 290 Q250 270 308 290 L296 360 L204 360 Z" fill="#dbeafe" stroke="#60a5fa" stroke-width="2"/>
  <path d="M180 244 C152 238 140 218 130 192" fill="none" stroke="#60a5fa" stroke-width="3" stroke-linecap="round"/>
  <path d="M320 244 C348 238 360 218 370 192" fill="none" stroke="#60a5fa" stroke-width="3" stroke-linecap="round"/>
  <polygon points="178,244 166,237 169,252" fill="#60a5fa"/>
  <polygon points="322,244 334,237 331,252" fill="#60a5fa"/>

  <text x="250" y="414" text-anchor="middle" font-family="serif" font-size="13" fill="#666">Sacred rivers are invited into the kalasa water</text>
</svg>
