<svg width="400" height="500" xmlns="http://www.w3.org/2000/svg">
  <!-- Background -->
  <rect width="400" height="500" fill="#f8f9fa"/>
  
  <!-- Hand outline -->
  <path d="M 200 450 
           C 180 450 160 440 150 420
           L 140 400
           L 130 380
           L 125 360
           L 120 340
           L 115 320
           L 110 300
           L 105 280
           L 100 260
           L 95 240
           L 90 220
           L 85 200
           L 80 180
           L 75 160
           L 70 140
           L 65 120
           L 60 100
           L 55 80
           L 50 60
           C 50 40 60 30 80 30
           C 100 30 110 40 120 50
           L 140 70
           L 160 90
           L 180 110
           L 200 130
           L 220 110
           L 240 90
           L 260 70
           L 280 50
           C 290 40 300 30 320 30
           C 340 30 350 40 350 60
           L 345 80
           L 340 100
           L 335 120
           L 330 140
           L 325 160
           L 320 180
           L 315 200
           L 310 220
           L 305 240
           L 300 260
           L 295 280
           L 290 300
           L 285 320
           L 280 340
           L 275 360
           L 270 380
           L 260 400
           L 250 420
           C 240 440 220 450 200 450 Z" 
        fill="none" 
        stroke="#333" 
        stroke-width="3"/>
  
  <!-- Thumb -->
  <path d="M 320 280
           L 350 260
           L 370 240
           L 380 220
           L 385 200
           C 390 180 390 160 385 140
           C 380 120 370 110 350 110
           C 330 110 320 120 315 140
           L 310 160
           L 305 180
           L 300 200
           L 295 220
           L 290 240
           L 285 260
           L 280 280
           L 320 280 Z"
        fill="none"
        stroke="#333"
        stroke-width="2"/>
  
  <!-- Index finger -->
  <path d="M 240 50
           L 250 40
           L 260 35
           L 270 30
           C 280 25 290 25 300 30
           L 310 35
           L 320 40
           L 330 50
           L 335 60
           L 340 70
           L 345 80
           L 350 90
           L 345 100
           L 340 110
           L 335 120
           L 330 130
           L 320 140
           L 310 145
           L 300 150
           C 290 155 280 155 270 150
           L 260 145
           L 250 140
           L 240 130
           L 235 120
           L 230 110
           L 225 100
           L 220 90
           L 225 80
           L 230 70
           L 235 60
           L 240 50 Z"
        fill="none"
        stroke="#333"
        stroke-width="2"/>
  
  <!-- Middle finger -->
  <path d="M 180 40
           L 190 30
           L 200 25
           L 210 20
           C 220 15 230 15 240 20
           L 250 25
           L 260 30
           L 270 40
           L 275 50
           L 280 60
           L 285 70
           L 290 80
           L 285 90
           L 280 100
           L 275 110
           L 270 120
           L 260 130
           L 250 135
           L 240 140
           C 230 145 220 145 210 140
           L 200 135
           L 190 130
           L 180 120
           L 175 110
           L 170 100
           L 165 90
           L 160 80
           L 165 70
           L 170 60
           L 175 50
           L 180 40 Z"
        fill="none"
        stroke="#333"
        stroke-width="2"/>
  
  <!-- Ring finger -->
  <path d="M 120 50
           L 130 40
           L 140 35
           L 150 30
           C 160 25 170 25 180 30
           L 190 35
           L 200 40
           L 210 50
           L 215 60
           L 220 70
           L 225 80
           L 230 90
           L 225 100
           L 220 110
           L 215 120
           L 210 130
           L 200 140
           L 190 145
           L 180 150
           C 170 155 160 155 150 150
           L 140 145
           L 130 140
           L 120 130
           L 115 120
           L 110 110
           L 105 100
           L 100 90
           L 105 80
           L 110 70
           L 115 60
           L 120 50 Z"
        fill="none"
        stroke="#333"
        stroke-width="2"/>
  
  <!-- Little finger -->
  <path d="M 70 70
           L 80 60
           L 90 55
           L 100 50
           C 110 45 120 45 130 50
           L 140 55
           L 150 60
           L 160 70
           L 165 80
           L 170 90
           L 175 100
           L 180 110
           L 175 120
           L 170 130
           L 165 140
           L 160 150
           L 150 160
           L 140 165
           L 130 170
           C 120 175 110 175 100 170
           L 90 165
           L 80 160
           L 70 150
           L 65 140
           L 60 130
           L 55 120
           L 50 110
           L 55 100
           L 60 90
           L 65 80
           L 70 70 Z"
        fill="none"
        stroke="#333"
        stroke-width="2"/>
  
  <!-- Finger joint lines -->
  <!-- Index finger joints -->
  <line x1="240" y1="90" x2="330" y2="90" stroke="#666" stroke-width="1"/>
  <line x1="240" y1="110" x2="330" y2="110" stroke="#666" stroke-width="1"/>
  <line x1="240" y1="130" x2="330" y2="130" stroke="#666" stroke-width="1"/>
  
  <!-- Middle finger joints -->
  <line x1="180" y1="80" x2="270" y2="80" stroke="#666" stroke-width="1"/>
  <line x1="180" y1="100" x2="270" y2="100" stroke="#666" stroke-width="1"/>
  <line x1="180" y1="120" x2="270" y2="120" stroke="#666" stroke-width="1"/>
  
  <!-- Ring finger joints -->
  <line x1="120" y1="90" x2="210" y2="90" stroke="#666" stroke-width="1"/>
  <line x1="120" y1="110" x2="210" y2="110" stroke="#666" stroke-width="1"/>
  <line x1="120" y1="130" x2="210" y2="130" stroke="#666" stroke-width="1"/>
  
  <!-- Little finger joints -->
  <line x1="70" y1="110" x2="160" y2="110" stroke="#666" stroke-width="1"/>
  <line x1="70" y1="130" x2="160" y2="130" stroke="#666" stroke-width="1"/>
  <line x1="70" y1="150" x2="160" y2="150" stroke="#666" stroke-width="1"/>
  
  <!-- Thumb joints -->
  <line x1="315" y1="160" x2="365" y2="140" stroke="#666" stroke-width="1"/>
  <line x1="310" y1="200" x2="370" y2="180" stroke="#666" stroke-width="1"/>
  
  <!-- Palm lines -->
  <path d="M 150 300 Q 200 280 250 300" fill="none" stroke="#666" stroke-width="2"/>
  <path d="M 120 350 Q 200 320 280 350" fill="none" stroke="#666" stroke-width="2"/>
  
  <!-- Number labels -->
  <circle cx="200" cy="50" r="15" fill="#ff6b35" stroke="#333" stroke-width="2"/>
  <text x="200" y="57" text-anchor="middle" font-family="Arial, sans-serif" font-size="16" font-weight="bold" fill="white">1</text>
  
  <circle cx="150" cy="320" r="12" fill="#ff6b35" stroke="#333" stroke-width="2"/>
  <text x="150" y="327" text-anchor="middle" font-family="Arial, sans-serif" font-size="14" font-weight="bold" fill="white">2</text>
  
  <circle cx="340" cy="190" r="12" fill="#ff6b35" stroke="#333" stroke-width="2"/>
  <text x="340" y="197" text-anchor="middle" font-family="Arial, sans-serif" font-size="14" font-weight="bold" fill="white">3</text>
  
  <!-- Labels -->
  <text x="130" y="190" font-family="Arial, sans-serif" font-size="14" font-weight="bold" fill="#333">Little</text>
  <text x="130" y="205" font-family="Arial, sans-serif" font-size="14" font-weight="bold" fill="#333">finger</text>
  
  <text x="300" y="120" font-family="Arial, sans-serif" font-size="14" font-weight="bold" fill="#333">Index</text>
  <text x="300" y="135" font-family="Arial, sans-serif" font-size="14" font-weight="bold" fill="#333">finger</text>
  
  <text x="350" y="230" font-family="Arial, sans-serif" font-size="14" font-weight="bold" fill="#333">Thumb</text>
  
  <text x="150" y="480" text-anchor="middle" font-family="Arial, sans-serif" font-size="18" font-weight="bold" fill="#333">Palm of the Right Hand</text>
</svg>
